<svg width="355" height="349" viewBox="0 0 355 349" fill="none" xmlns="http://www.w3.org/2000/svg">
<path d="M173.906 188.809H174.438C173.173 185.832 171.52 182.931 169.601 180.302L46.3053 111.091C42.2006 112.509 39.5714 116.751 39.5714 123.186V230.504C39.5714 241.781 47.6255 255.49 57.5544 261.128L159.262 318.866C165.297 322.291 170.644 321.942 173.906 318.615V188.809ZM300.763 89.9438L195.028 29.8068C185.099 24.1573 169.002 24.1573 159.073 29.8068L53.3388 89.9438C44.8742 94.7644 43.6317 102.126 49.6113 107.699L166.961 173.573C173.429 175.165 180.828 175.154 187.285 173.54L304.756 107.448C310.436 101.908 309.105 94.6881 300.763 89.9438ZM307.818 110.96L185.121 179.986C183.091 182.712 181.35 185.733 180.029 188.853V317.983C183.213 321.887 188.827 322.498 195.228 318.866L296.935 261.128C306.864 255.49 314.918 241.781 314.918 230.504V123.186C314.918 116.555 312.145 112.247 307.818 110.96Z" fill="black"/>
<g clip-path="url(#clip0_3_42)">
<mask id="path-2-inside-1_3_42" fill="white">
<path d="M115.205 224.148L69.7906 262.897L65.5049 256.232L111.916 219.018L115.205 224.148ZM78.4155 250.652C78.2634 250.415 78.0493 250.237 77.8005 250.142C77.5516 250.046 77.2791 250.036 77.0175 250.113C76.7558 250.191 76.5167 250.352 76.3305 250.577C76.1442 250.802 76.0192 251.08 75.9712 251.377C75.9231 251.673 75.9543 251.974 76.0607 252.242C76.1671 252.51 76.3439 252.732 76.5688 252.881C76.7937 253.031 77.0567 253.1 77.3243 253.08C77.5919 253.06 77.8522 252.952 78.0723 252.769C78.3672 252.525 78.569 252.165 78.6333 251.768C78.6977 251.371 78.6193 250.97 78.4155 250.652ZM83.6086 246.356C83.4565 246.119 83.2425 245.941 82.9936 245.845C82.7448 245.749 82.4723 245.739 82.2106 245.817C81.9489 245.894 81.7099 246.056 81.5236 246.281C81.3374 246.505 81.2123 246.784 81.1643 247.08C81.1163 247.376 81.1474 247.677 81.2538 247.945C81.3602 248.213 81.537 248.436 81.762 248.585C81.9869 248.734 82.2498 248.803 82.5174 248.783C82.785 248.763 83.0453 248.655 83.2654 248.473C83.5588 248.229 83.7596 247.87 83.824 247.475C83.8884 247.079 83.8112 246.679 83.6093 246.362L83.6086 246.356ZM88.8042 242.066C88.6521 241.829 88.438 241.651 88.1892 241.555C87.9403 241.459 87.6678 241.449 87.4062 241.527C87.1445 241.605 86.9054 241.766 86.7192 241.991C86.5329 242.216 86.4079 242.494 86.3599 242.79C86.3118 243.086 86.343 243.388 86.4494 243.656C86.5558 243.923 86.7326 244.146 86.9575 244.295C87.1824 244.444 87.4454 244.513 87.713 244.493C87.9806 244.473 88.2409 244.365 88.461 244.183C88.7559 243.939 88.9577 243.579 89.022 243.182C89.0864 242.785 89.008 242.383 88.8042 242.066ZM93.9977 237.767C93.8456 237.53 93.6315 237.353 93.3827 237.257C93.1338 237.161 92.8613 237.151 92.5997 237.228C92.338 237.306 92.0989 237.467 91.9127 237.692C91.7264 237.917 91.6014 238.195 91.5534 238.492C91.5053 238.788 91.5365 239.089 91.6429 239.357C91.7493 239.625 91.9261 239.847 92.151 239.997C92.376 240.146 92.6389 240.215 92.9065 240.195C93.1741 240.175 93.4344 240.067 93.6545 239.885C93.9494 239.64 94.1512 239.28 94.2155 238.883C94.2799 238.486 94.2015 238.085 93.9977 237.767ZM99.1944 233.471C99.0423 233.234 98.8282 233.057 98.5794 232.961C98.3305 232.865 98.0581 232.855 97.7964 232.933C97.5347 233.01 97.2956 233.172 97.1094 233.396C96.9231 233.621 96.7981 233.899 96.7501 234.196C96.702 234.492 96.7332 234.793 96.8396 235.061C96.946 235.329 97.1228 235.552 97.3477 235.701C97.5727 235.85 97.8356 235.919 98.1032 235.899C98.3708 235.879 98.6311 235.771 98.8512 235.589C99.1461 235.345 99.3479 234.984 99.4122 234.587C99.4766 234.19 99.3982 233.789 99.1944 233.471ZM104.388 229.175C104.235 228.938 104.021 228.76 103.773 228.664C103.524 228.568 103.251 228.559 102.99 228.636C102.728 228.714 102.489 228.875 102.303 229.1C102.116 229.325 101.991 229.603 101.943 229.899C101.895 230.196 101.926 230.497 102.033 230.765C102.139 231.033 102.316 231.255 102.541 231.404C102.766 231.553 103.029 231.622 103.296 231.602C103.564 231.582 103.824 231.475 104.044 231.292C104.339 231.048 104.541 230.687 104.605 230.29C104.669 229.893 104.59 229.492 104.386 229.175L104.388 229.175ZM109.581 224.878C109.429 224.641 109.215 224.464 108.966 224.368C108.717 224.272 108.444 224.262 108.183 224.34C107.921 224.417 107.682 224.579 107.496 224.803C107.309 225.028 107.184 225.306 107.136 225.603C107.088 225.899 107.119 226.2 107.226 226.468C107.332 226.736 107.509 226.959 107.734 227.108C107.959 227.257 108.222 227.326 108.489 227.306C108.757 227.286 109.017 227.178 109.237 226.996C109.532 226.752 109.734 226.391 109.798 225.994C109.863 225.597 109.784 225.196 109.581 224.878ZM62.273 250.954L58.3621 244.004L106.51 209.807L109.515 215.14L62.273 250.954ZM71.2534 239.449C71.1145 239.202 70.9109 239.01 70.6684 238.897C70.4258 238.785 70.1551 238.757 69.8906 238.817C69.626 238.878 69.3795 239.024 69.1823 239.236C68.985 239.449 68.8458 239.719 68.7822 240.013C68.7187 240.306 68.7337 240.61 68.8254 240.885C68.9171 241.161 69.0812 241.395 69.2972 241.559C69.5131 241.723 69.7711 241.81 70.0385 241.808C70.3059 241.805 70.5707 241.715 70.7994 241.547C71.1061 241.322 71.3264 240.975 71.4118 240.582C71.4973 240.188 71.4409 239.781 71.2552 239.45L71.2534 239.449ZM76.6527 235.49C76.5139 235.242 76.3103 235.05 76.0677 234.938C75.8251 234.825 75.5545 234.798 75.2899 234.858C75.0254 234.918 74.7789 235.064 74.5816 235.277C74.3843 235.49 74.2451 235.76 74.1816 236.053C74.1181 236.347 74.1331 236.65 74.2247 236.926C74.3164 237.201 74.4806 237.435 74.6965 237.6C74.9125 237.764 75.1705 237.85 75.4379 237.848C75.7053 237.846 75.9701 237.755 76.1988 237.587C76.5053 237.362 76.7252 237.015 76.8103 236.621C76.8955 236.228 76.8388 235.821 76.6527 235.49ZM82.046 231.533C81.9071 231.286 81.7035 231.094 81.4609 230.981C81.2184 230.869 80.9477 230.841 80.6832 230.901C80.4186 230.962 80.1721 231.107 79.9748 231.32C79.7775 231.533 79.6383 231.803 79.5748 232.097C79.5113 232.39 79.5263 232.694 79.618 232.969C79.7096 233.244 79.8738 233.479 80.0898 233.643C80.3057 233.807 80.5637 233.894 80.8311 233.891C81.0985 233.889 81.3633 233.798 81.592 233.631C81.8985 233.406 82.1185 233.058 82.2036 232.665C82.2887 232.272 82.232 231.865 82.046 231.533ZM87.4417 227.573C87.3029 227.326 87.0993 227.133 86.8567 227.021C86.6141 226.909 86.3435 226.881 86.0789 226.941C85.8144 227.001 85.5679 227.147 85.3706 227.36C85.1733 227.573 85.0341 227.843 84.9706 228.137C84.9071 228.43 84.9221 228.734 85.0138 229.009C85.1054 229.284 85.2696 229.519 85.4855 229.683C85.7015 229.847 85.9595 229.933 86.2269 229.931C86.4943 229.929 86.7591 229.838 86.9878 229.67C87.1404 229.559 87.2732 229.416 87.3787 229.25C87.4842 229.084 87.5603 228.898 87.6026 228.702C87.6449 228.507 87.6525 228.306 87.6251 228.111C87.5977 227.916 87.5358 227.731 87.4429 227.567L87.4417 227.573ZM92.8375 223.613C92.6987 223.365 92.4951 223.173 92.2525 223.061C92.0099 222.948 91.7392 222.92 91.4747 222.981C91.2102 223.041 90.9637 223.187 90.7664 223.4C90.5691 223.613 90.4299 223.883 90.3664 224.176C90.3028 224.47 90.3179 224.773 90.4095 225.049C90.5012 225.324 90.6654 225.558 90.8813 225.723C91.0973 225.887 91.3552 225.973 91.6227 225.971C91.8901 225.969 92.1549 225.878 92.3836 225.71C92.5361 225.599 92.669 225.456 92.7745 225.29C92.88 225.124 92.9561 224.937 92.9984 224.742C93.0406 224.546 93.0483 224.346 93.0209 224.151C92.9935 223.956 92.9315 223.771 92.8386 223.607L92.8375 223.613ZM98.2333 219.652C98.0944 219.405 97.8909 219.213 97.6483 219.1C97.4057 218.988 97.135 218.96 96.8705 219.021C96.6059 219.081 96.3594 219.227 96.1622 219.439C95.9649 219.652 95.8257 219.923 95.7621 220.216C95.6986 220.51 95.7136 220.813 95.8053 221.088C95.897 221.364 96.0612 221.598 96.2771 221.762C96.493 221.927 96.751 222.013 97.0184 222.011C97.2858 222.008 97.5506 221.918 97.7794 221.75C97.9322 221.638 98.0653 221.495 98.171 221.329C98.2767 221.163 98.3529 220.977 98.3952 220.781C98.4375 220.585 98.4452 220.384 98.4176 220.189C98.3901 219.994 98.328 219.809 98.2348 219.644L98.2333 219.652ZM103.629 215.692C103.49 215.445 103.287 215.253 103.044 215.14C102.801 215.028 102.531 215 102.266 215.06C102.002 215.121 101.755 215.266 101.558 215.479C101.361 215.692 101.221 215.962 101.158 216.256C101.094 216.549 101.109 216.853 101.201 217.128C101.293 217.403 101.457 217.638 101.673 217.802C101.889 217.966 102.147 218.053 102.414 218.05C102.682 218.048 102.946 217.957 103.175 217.789C103.328 217.678 103.461 217.535 103.567 217.369C103.672 217.203 103.749 217.016 103.791 216.821C103.833 216.625 103.841 216.424 103.813 216.229C103.786 216.034 103.724 215.849 103.631 215.684L103.629 215.692ZM114.979 218.077C117.687 216.318 120.254 214.674 122.755 213.071C140.289 201.834 150.924 195.022 155.311 183.401C153.564 184.481 142.068 191.5 136.512 192.205L111.622 212.585L114.979 218.077Z"/>
</mask>
<path d="M115.205 224.148L69.7906 262.897L65.5049 256.232L111.916 219.018L115.205 224.148ZM78.4155 250.652C78.2634 250.415 78.0493 250.237 77.8005 250.142C77.5516 250.046 77.2791 250.036 77.0175 250.113C76.7558 250.191 76.5167 250.352 76.3305 250.577C76.1442 250.802 76.0192 251.08 75.9712 251.377C75.9231 251.673 75.9543 251.974 76.0607 252.242C76.1671 252.51 76.3439 252.732 76.5688 252.881C76.7937 253.031 77.0567 253.1 77.3243 253.08C77.5919 253.06 77.8522 252.952 78.0723 252.769C78.3672 252.525 78.569 252.165 78.6333 251.768C78.6977 251.371 78.6193 250.97 78.4155 250.652ZM83.6086 246.356C83.4565 246.119 83.2425 245.941 82.9936 245.845C82.7448 245.749 82.4723 245.739 82.2106 245.817C81.9489 245.894 81.7099 246.056 81.5236 246.281C81.3374 246.505 81.2123 246.784 81.1643 247.08C81.1163 247.376 81.1474 247.677 81.2538 247.945C81.3602 248.213 81.537 248.436 81.762 248.585C81.9869 248.734 82.2498 248.803 82.5174 248.783C82.785 248.763 83.0453 248.655 83.2654 248.473C83.5588 248.229 83.7596 247.87 83.824 247.475C83.8884 247.079 83.8112 246.679 83.6093 246.362L83.6086 246.356ZM88.8042 242.066C88.6521 241.829 88.438 241.651 88.1892 241.555C87.9403 241.459 87.6678 241.449 87.4062 241.527C87.1445 241.605 86.9054 241.766 86.7192 241.991C86.5329 242.216 86.4079 242.494 86.3599 242.79C86.3118 243.086 86.343 243.388 86.4494 243.656C86.5558 243.923 86.7326 244.146 86.9575 244.295C87.1824 244.444 87.4454 244.513 87.713 244.493C87.9806 244.473 88.2409 244.365 88.461 244.183C88.7559 243.939 88.9577 243.579 89.022 243.182C89.0864 242.785 89.008 242.383 88.8042 242.066ZM93.9977 237.767C93.8456 237.53 93.6315 237.353 93.3827 237.257C93.1338 237.161 92.8613 237.151 92.5997 237.228C92.338 237.306 92.0989 237.467 91.9127 237.692C91.7264 237.917 91.6014 238.195 91.5534 238.492C91.5053 238.788 91.5365 239.089 91.6429 239.357C91.7493 239.625 91.9261 239.847 92.151 239.997C92.376 240.146 92.6389 240.215 92.9065 240.195C93.1741 240.175 93.4344 240.067 93.6545 239.885C93.9494 239.64 94.1512 239.28 94.2155 238.883C94.2799 238.486 94.2015 238.085 93.9977 237.767ZM99.1944 233.471C99.0423 233.234 98.8282 233.057 98.5794 232.961C98.3305 232.865 98.0581 232.855 97.7964 232.933C97.5347 233.01 97.2956 233.172 97.1094 233.396C96.9231 233.621 96.7981 233.899 96.7501 234.196C96.702 234.492 96.7332 234.793 96.8396 235.061C96.946 235.329 97.1228 235.552 97.3477 235.701C97.5727 235.85 97.8356 235.919 98.1032 235.899C98.3708 235.879 98.6311 235.771 98.8512 235.589C99.1461 235.345 99.3479 234.984 99.4122 234.587C99.4766 234.19 99.3982 233.789 99.1944 233.471ZM104.388 229.175C104.235 228.938 104.021 228.76 103.773 228.664C103.524 228.568 103.251 228.559 102.99 228.636C102.728 228.714 102.489 228.875 102.303 229.1C102.116 229.325 101.991 229.603 101.943 229.899C101.895 230.196 101.926 230.497 102.033 230.765C102.139 231.033 102.316 231.255 102.541 231.404C102.766 231.553 103.029 231.622 103.296 231.602C103.564 231.582 103.824 231.475 104.044 231.292C104.339 231.048 104.541 230.687 104.605 230.29C104.669 229.893 104.59 229.492 104.386 229.175L104.388 229.175ZM109.581 224.878C109.429 224.641 109.215 224.464 108.966 224.368C108.717 224.272 108.444 224.262 108.183 224.34C107.921 224.417 107.682 224.579 107.496 224.803C107.309 225.028 107.184 225.306 107.136 225.603C107.088 225.899 107.119 226.2 107.226 226.468C107.332 226.736 107.509 226.959 107.734 227.108C107.959 227.257 108.222 227.326 108.489 227.306C108.757 227.286 109.017 227.178 109.237 226.996C109.532 226.752 109.734 226.391 109.798 225.994C109.863 225.597 109.784 225.196 109.581 224.878ZM62.273 250.954L58.3621 244.004L106.51 209.807L109.515 215.14L62.273 250.954ZM71.2534 239.449C71.1145 239.202 70.9109 239.01 70.6684 238.897C70.4258 238.785 70.1551 238.757 69.8906 238.817C69.626 238.878 69.3795 239.024 69.1823 239.236C68.985 239.449 68.8458 239.719 68.7822 240.013C68.7187 240.306 68.7337 240.61 68.8254 240.885C68.9171 241.161 69.0812 241.395 69.2972 241.559C69.5131 241.723 69.7711 241.81 70.0385 241.808C70.3059 241.805 70.5707 241.715 70.7994 241.547C71.1061 241.322 71.3264 240.975 71.4118 240.582C71.4973 240.188 71.4409 239.781 71.2552 239.45L71.2534 239.449ZM76.6527 235.49C76.5139 235.242 76.3103 235.05 76.0677 234.938C75.8251 234.825 75.5545 234.798 75.2899 234.858C75.0254 234.918 74.7789 235.064 74.5816 235.277C74.3843 235.49 74.2451 235.76 74.1816 236.053C74.1181 236.347 74.1331 236.65 74.2247 236.926C74.3164 237.201 74.4806 237.435 74.6965 237.6C74.9125 237.764 75.1705 237.85 75.4379 237.848C75.7053 237.846 75.9701 237.755 76.1988 237.587C76.5053 237.362 76.7252 237.015 76.8103 236.621C76.8955 236.228 76.8388 235.821 76.6527 235.49ZM82.046 231.533C81.9071 231.286 81.7035 231.094 81.4609 230.981C81.2184 230.869 80.9477 230.841 80.6832 230.901C80.4186 230.962 80.1721 231.107 79.9748 231.32C79.7775 231.533 79.6383 231.803 79.5748 232.097C79.5113 232.39 79.5263 232.694 79.618 232.969C79.7096 233.244 79.8738 233.479 80.0898 233.643C80.3057 233.807 80.5637 233.894 80.8311 233.891C81.0985 233.889 81.3633 233.798 81.592 233.631C81.8985 233.406 82.1185 233.058 82.2036 232.665C82.2887 232.272 82.232 231.865 82.046 231.533ZM87.4417 227.573C87.3029 227.326 87.0993 227.133 86.8567 227.021C86.6141 226.909 86.3435 226.881 86.0789 226.941C85.8144 227.001 85.5679 227.147 85.3706 227.36C85.1733 227.573 85.0341 227.843 84.9706 228.137C84.9071 228.43 84.9221 228.734 85.0138 229.009C85.1054 229.284 85.2696 229.519 85.4855 229.683C85.7015 229.847 85.9595 229.933 86.2269 229.931C86.4943 229.929 86.7591 229.838 86.9878 229.67C87.1404 229.559 87.2732 229.416 87.3787 229.25C87.4842 229.084 87.5603 228.898 87.6026 228.702C87.6449 228.507 87.6525 228.306 87.6251 228.111C87.5977 227.916 87.5358 227.731 87.4429 227.567L87.4417 227.573ZM92.8375 223.613C92.6987 223.365 92.4951 223.173 92.2525 223.061C92.0099 222.948 91.7392 222.92 91.4747 222.981C91.2102 223.041 90.9637 223.187 90.7664 223.4C90.5691 223.613 90.4299 223.883 90.3664 224.176C90.3028 224.47 90.3179 224.773 90.4095 225.049C90.5012 225.324 90.6654 225.558 90.8813 225.723C91.0973 225.887 91.3552 225.973 91.6227 225.971C91.8901 225.969 92.1549 225.878 92.3836 225.71C92.5361 225.599 92.669 225.456 92.7745 225.29C92.88 225.124 92.9561 224.937 92.9984 224.742C93.0406 224.546 93.0483 224.346 93.0209 224.151C92.9935 223.956 92.9315 223.771 92.8386 223.607L92.8375 223.613ZM98.2333 219.652C98.0944 219.405 97.8909 219.213 97.6483 219.1C97.4057 218.988 97.135 218.96 96.8705 219.021C96.6059 219.081 96.3594 219.227 96.1622 219.439C95.9649 219.652 95.8257 219.923 95.7621 220.216C95.6986 220.51 95.7136 220.813 95.8053 221.088C95.897 221.364 96.0612 221.598 96.2771 221.762C96.493 221.927 96.751 222.013 97.0184 222.011C97.2858 222.008 97.5506 221.918 97.7794 221.75C97.9322 221.638 98.0653 221.495 98.171 221.329C98.2767 221.163 98.3529 220.977 98.3952 220.781C98.4375 220.585 98.4452 220.384 98.4176 220.189C98.3901 219.994 98.328 219.809 98.2348 219.644L98.2333 219.652ZM103.629 215.692C103.49 215.445 103.287 215.253 103.044 215.14C102.801 215.028 102.531 215 102.266 215.06C102.002 215.121 101.755 215.266 101.558 215.479C101.361 215.692 101.221 215.962 101.158 216.256C101.094 216.549 101.109 216.853 101.201 217.128C101.293 217.403 101.457 217.638 101.673 217.802C101.889 217.966 102.147 218.053 102.414 218.05C102.682 218.048 102.946 217.957 103.175 217.789C103.328 217.678 103.461 217.535 103.567 217.369C103.672 217.203 103.749 217.016 103.791 216.821C103.833 216.625 103.841 216.424 103.813 216.229C103.786 216.034 103.724 215.849 103.631 215.684L103.629 215.692ZM114.979 218.077C117.687 216.318 120.254 214.674 122.755 213.071C140.289 201.834 150.924 195.022 155.311 183.401C153.564 184.481 142.068 191.5 136.512 192.205L111.622 212.585L114.979 218.077Z" fill="white" stroke="white" stroke-width="2" mask="url(#path-2-inside-1_3_42)"/>
</g>
<g clip-path="url(#clip1_3_42)">
<mask id="path-3-inside-2_3_42" fill="white">
<path d="M237.616 225.368L280.476 266.81L285.178 260.419L241.225 220.448L237.616 225.368ZM272.647 254.063C272.814 253.836 273.039 253.672 273.293 253.591C273.548 253.51 273.821 253.517 274.077 253.611C274.333 253.704 274.561 253.88 274.733 254.115C274.904 254.351 275.012 254.636 275.041 254.935C275.07 255.234 275.019 255.532 274.896 255.793C274.773 256.054 274.582 256.266 274.348 256.401C274.114 256.536 273.848 256.589 273.582 256.552C273.316 256.516 273.063 256.393 272.855 256.197C272.576 255.936 272.398 255.564 272.359 255.164C272.32 254.763 272.424 254.368 272.647 254.063ZM267.738 249.458C267.904 249.231 268.129 249.067 268.384 248.986C268.638 248.906 268.911 248.913 269.167 249.006C269.423 249.099 269.652 249.275 269.823 249.511C269.995 249.746 270.102 250.032 270.131 250.33C270.16 250.629 270.11 250.928 269.987 251.189C269.863 251.45 269.673 251.661 269.439 251.796C269.205 251.931 268.938 251.984 268.672 251.948C268.406 251.912 268.153 251.788 267.945 251.593C267.668 251.331 267.491 250.961 267.451 250.562C267.412 250.164 267.515 249.769 267.737 249.465L267.738 249.458ZM262.825 244.86C262.992 244.633 263.217 244.469 263.471 244.388C263.726 244.308 263.999 244.314 264.255 244.408C264.511 244.501 264.739 244.677 264.911 244.913C265.082 245.148 265.19 245.434 265.219 245.732C265.248 246.031 265.197 246.33 265.074 246.59C264.951 246.851 264.76 247.063 264.526 247.198C264.292 247.333 264.026 247.386 263.76 247.35C263.494 247.313 263.241 247.19 263.033 246.994C262.754 246.733 262.576 246.361 262.537 245.961C262.498 245.561 262.601 245.165 262.825 244.86ZM257.915 240.254C258.082 240.026 258.307 239.862 258.562 239.781C258.816 239.701 259.089 239.708 259.345 239.801C259.601 239.894 259.829 240.07 260.001 240.306C260.173 240.542 260.28 240.827 260.309 241.126C260.338 241.424 260.288 241.723 260.164 241.984C260.041 242.245 259.85 242.456 259.616 242.591C259.383 242.726 259.116 242.779 258.85 242.743C258.584 242.707 258.331 242.583 258.123 242.388C257.844 242.126 257.666 241.754 257.627 241.354C257.588 240.954 257.692 240.558 257.915 240.254ZM253.002 235.649C253.169 235.422 253.394 235.258 253.648 235.177C253.903 235.097 254.175 235.103 254.432 235.197C254.688 235.29 254.916 235.466 255.088 235.702C255.259 235.937 255.367 236.223 255.396 236.521C255.425 236.82 255.374 237.119 255.251 237.379C255.128 237.64 254.937 237.852 254.703 237.987C254.469 238.122 254.203 238.175 253.937 238.139C253.671 238.102 253.418 237.979 253.21 237.783C252.931 237.522 252.753 237.15 252.714 236.75C252.675 236.35 252.778 235.954 253.002 235.649ZM248.093 231.045C248.259 230.817 248.484 230.653 248.739 230.572C248.993 230.492 249.266 230.499 249.522 230.592C249.778 230.685 250.007 230.861 250.178 231.097C250.35 231.333 250.457 231.618 250.486 231.917C250.515 232.215 250.465 232.514 250.342 232.775C250.218 233.036 250.028 233.247 249.794 233.382C249.56 233.517 249.293 233.57 249.027 233.534C248.761 233.498 248.508 233.374 248.3 233.179C248.022 232.917 247.844 232.545 247.805 232.145C247.766 231.744 247.87 231.349 248.094 231.044L248.093 231.045ZM243.183 226.44C243.35 226.213 243.575 226.048 243.829 225.968C244.084 225.887 244.356 225.894 244.613 225.987C244.869 226.081 245.097 226.256 245.269 226.492C245.44 226.728 245.547 227.013 245.576 227.312C245.605 227.611 245.555 227.909 245.432 228.17C245.309 228.431 245.118 228.642 244.884 228.777C244.65 228.913 244.383 228.965 244.118 228.929C243.852 228.893 243.599 228.769 243.391 228.574C243.112 228.312 242.933 227.941 242.895 227.54C242.856 227.14 242.959 226.744 243.183 226.44ZM288.739 255.348L293.085 248.651L247.207 211.585L243.868 216.725L288.739 255.348ZM280.508 243.319C280.663 243.08 280.878 242.901 281.127 242.803C281.377 242.706 281.649 242.695 281.909 242.771C282.169 242.847 282.406 243.008 282.589 243.232C282.772 243.457 282.894 243.735 282.939 244.032C282.984 244.329 282.949 244.631 282.84 244.9C282.731 245.169 282.552 245.393 282.326 245.544C282.101 245.694 281.838 245.765 281.571 245.746C281.304 245.728 281.046 245.621 280.828 245.44C280.536 245.197 280.338 244.837 280.278 244.439C280.218 244.041 280.3 243.639 280.507 243.319L280.508 243.319ZM275.372 239.038C275.526 238.799 275.741 238.62 275.991 238.522C276.24 238.425 276.512 238.414 276.772 238.49C277.032 238.566 277.269 238.727 277.452 238.951C277.636 239.176 277.757 239.454 277.802 239.751C277.847 240.048 277.812 240.35 277.703 240.619C277.594 240.888 277.416 241.112 277.19 241.263C276.964 241.413 276.701 241.484 276.434 241.465C276.167 241.447 275.909 241.34 275.691 241.159C275.4 240.915 275.202 240.555 275.142 240.158C275.082 239.76 275.165 239.357 275.372 239.038ZM270.241 234.76C270.395 234.522 270.61 234.342 270.86 234.245C271.109 234.147 271.381 234.136 271.641 234.212C271.901 234.289 272.138 234.449 272.321 234.674C272.505 234.898 272.626 235.176 272.671 235.473C272.716 235.77 272.681 236.072 272.572 236.341C272.463 236.61 272.285 236.834 272.059 236.985C271.833 237.136 271.57 237.206 271.303 237.188C271.036 237.169 270.778 237.063 270.56 236.881C270.269 236.638 270.071 236.278 270.011 235.88C269.951 235.482 270.034 235.079 270.241 234.76ZM265.107 230.479C265.262 230.24 265.477 230.061 265.726 229.963C265.976 229.866 266.248 229.855 266.508 229.931C266.768 230.007 267.005 230.168 267.188 230.392C267.371 230.617 267.493 230.895 267.538 231.192C267.583 231.489 267.548 231.791 267.439 232.06C267.33 232.329 267.151 232.553 266.925 232.704C266.7 232.854 266.437 232.925 266.17 232.906C265.903 232.888 265.645 232.781 265.427 232.6C265.282 232.479 265.158 232.328 265.064 232.156C264.969 231.984 264.905 231.794 264.875 231.596C264.845 231.398 264.85 231.197 264.89 231.004C264.93 230.812 265.003 230.631 265.107 230.472L265.107 230.479ZM259.974 226.197C260.128 225.959 260.344 225.779 260.593 225.682C260.842 225.585 261.114 225.573 261.375 225.65C261.635 225.726 261.871 225.886 262.055 226.111C262.238 226.335 262.36 226.614 262.405 226.91C262.449 227.207 262.415 227.509 262.306 227.778C262.197 228.047 262.018 228.272 261.792 228.422C261.566 228.573 261.303 228.643 261.037 228.625C260.77 228.606 260.511 228.5 260.294 228.318C260.149 228.198 260.025 228.047 259.93 227.875C259.836 227.703 259.771 227.512 259.742 227.314C259.712 227.117 259.717 226.916 259.757 226.723C259.797 226.53 259.87 226.349 259.973 226.191L259.974 226.197ZM254.841 221.916C254.995 221.677 255.211 221.498 255.46 221.401C255.709 221.303 255.981 221.292 256.241 221.368C256.501 221.445 256.738 221.605 256.922 221.829C257.105 222.054 257.227 222.332 257.271 222.629C257.316 222.926 257.282 223.228 257.173 223.497C257.064 223.766 256.885 223.99 256.659 224.141C256.433 224.292 256.17 224.362 255.903 224.344C255.637 224.325 255.378 224.218 255.16 224.037C255.015 223.916 254.891 223.765 254.796 223.593C254.701 223.421 254.637 223.23 254.607 223.032C254.578 222.834 254.583 222.633 254.623 222.44C254.663 222.247 254.736 222.066 254.84 221.908L254.841 221.916ZM249.708 217.634C249.862 217.396 250.077 217.217 250.327 217.119C250.576 217.022 250.848 217.01 251.108 217.087C251.368 217.163 251.605 217.324 251.788 217.548C251.972 217.772 252.093 218.051 252.138 218.347C252.183 218.644 252.149 218.946 252.04 219.215C251.931 219.485 251.752 219.709 251.526 219.859C251.3 220.01 251.037 220.081 250.77 220.062C250.503 220.044 250.245 219.937 250.027 219.755C249.882 219.635 249.758 219.484 249.663 219.312C249.568 219.139 249.504 218.949 249.474 218.751C249.444 218.553 249.45 218.352 249.49 218.159C249.529 217.966 249.603 217.785 249.707 217.626L249.708 217.634ZM238.228 219.323C235.637 217.402 233.18 215.605 230.786 213.852C214.001 201.569 203.82 194.122 200.181 182.256C201.856 183.44 212.883 191.146 218.384 192.189L241.929 214.046L238.228 219.323Z"/>
</mask>
<path d="M237.616 225.368L280.476 266.81L285.178 260.419L241.225 220.448L237.616 225.368ZM272.647 254.063C272.814 253.836 273.039 253.672 273.293 253.591C273.548 253.51 273.821 253.517 274.077 253.611C274.333 253.704 274.561 253.88 274.733 254.115C274.904 254.351 275.012 254.636 275.041 254.935C275.07 255.234 275.019 255.532 274.896 255.793C274.773 256.054 274.582 256.266 274.348 256.401C274.114 256.536 273.848 256.589 273.582 256.552C273.316 256.516 273.063 256.393 272.855 256.197C272.576 255.936 272.398 255.564 272.359 255.164C272.32 254.763 272.424 254.368 272.647 254.063ZM267.738 249.458C267.904 249.231 268.129 249.067 268.384 248.986C268.638 248.906 268.911 248.913 269.167 249.006C269.423 249.099 269.652 249.275 269.823 249.511C269.995 249.746 270.102 250.032 270.131 250.33C270.16 250.629 270.11 250.928 269.987 251.189C269.863 251.45 269.673 251.661 269.439 251.796C269.205 251.931 268.938 251.984 268.672 251.948C268.406 251.912 268.153 251.788 267.945 251.593C267.668 251.331 267.491 250.961 267.451 250.562C267.412 250.164 267.515 249.769 267.737 249.465L267.738 249.458ZM262.825 244.86C262.992 244.633 263.217 244.469 263.471 244.388C263.726 244.308 263.999 244.314 264.255 244.408C264.511 244.501 264.739 244.677 264.911 244.913C265.082 245.148 265.19 245.434 265.219 245.732C265.248 246.031 265.197 246.33 265.074 246.59C264.951 246.851 264.76 247.063 264.526 247.198C264.292 247.333 264.026 247.386 263.76 247.35C263.494 247.313 263.241 247.19 263.033 246.994C262.754 246.733 262.576 246.361 262.537 245.961C262.498 245.561 262.601 245.165 262.825 244.86ZM257.915 240.254C258.082 240.026 258.307 239.862 258.562 239.781C258.816 239.701 259.089 239.708 259.345 239.801C259.601 239.894 259.829 240.07 260.001 240.306C260.173 240.542 260.28 240.827 260.309 241.126C260.338 241.424 260.288 241.723 260.164 241.984C260.041 242.245 259.85 242.456 259.616 242.591C259.383 242.726 259.116 242.779 258.85 242.743C258.584 242.707 258.331 242.583 258.123 242.388C257.844 242.126 257.666 241.754 257.627 241.354C257.588 240.954 257.692 240.558 257.915 240.254ZM253.002 235.649C253.169 235.422 253.394 235.258 253.648 235.177C253.903 235.097 254.175 235.103 254.432 235.197C254.688 235.29 254.916 235.466 255.088 235.702C255.259 235.937 255.367 236.223 255.396 236.521C255.425 236.82 255.374 237.119 255.251 237.379C255.128 237.64 254.937 237.852 254.703 237.987C254.469 238.122 254.203 238.175 253.937 238.139C253.671 238.102 253.418 237.979 253.21 237.783C252.931 237.522 252.753 237.15 252.714 236.75C252.675 236.35 252.778 235.954 253.002 235.649ZM248.093 231.045C248.259 230.817 248.484 230.653 248.739 230.572C248.993 230.492 249.266 230.499 249.522 230.592C249.778 230.685 250.007 230.861 250.178 231.097C250.35 231.333 250.457 231.618 250.486 231.917C250.515 232.215 250.465 232.514 250.342 232.775C250.218 233.036 250.028 233.247 249.794 233.382C249.56 233.517 249.293 233.57 249.027 233.534C248.761 233.498 248.508 233.374 248.3 233.179C248.022 232.917 247.844 232.545 247.805 232.145C247.766 231.744 247.87 231.349 248.094 231.044L248.093 231.045ZM243.183 226.44C243.35 226.213 243.575 226.048 243.829 225.968C244.084 225.887 244.356 225.894 244.613 225.987C244.869 226.081 245.097 226.256 245.269 226.492C245.44 226.728 245.547 227.013 245.576 227.312C245.605 227.611 245.555 227.909 245.432 228.17C245.309 228.431 245.118 228.642 244.884 228.777C244.65 228.913 244.383 228.965 244.118 228.929C243.852 228.893 243.599 228.769 243.391 228.574C243.112 228.312 242.933 227.941 242.895 227.54C242.856 227.14 242.959 226.744 243.183 226.44ZM288.739 255.348L293.085 248.651L247.207 211.585L243.868 216.725L288.739 255.348ZM280.508 243.319C280.663 243.08 280.878 242.901 281.127 242.803C281.377 242.706 281.649 242.695 281.909 242.771C282.169 242.847 282.406 243.008 282.589 243.232C282.772 243.457 282.894 243.735 282.939 244.032C282.984 244.329 282.949 244.631 282.84 244.9C282.731 245.169 282.552 245.393 282.326 245.544C282.101 245.694 281.838 245.765 281.571 245.746C281.304 245.728 281.046 245.621 280.828 245.44C280.536 245.197 280.338 244.837 280.278 244.439C280.218 244.041 280.3 243.639 280.507 243.319L280.508 243.319ZM275.372 239.038C275.526 238.799 275.741 238.62 275.991 238.522C276.24 238.425 276.512 238.414 276.772 238.49C277.032 238.566 277.269 238.727 277.452 238.951C277.636 239.176 277.757 239.454 277.802 239.751C277.847 240.048 277.812 240.35 277.703 240.619C277.594 240.888 277.416 241.112 277.19 241.263C276.964 241.413 276.701 241.484 276.434 241.465C276.167 241.447 275.909 241.34 275.691 241.159C275.4 240.915 275.202 240.555 275.142 240.158C275.082 239.76 275.165 239.357 275.372 239.038ZM270.241 234.76C270.395 234.522 270.61 234.342 270.86 234.245C271.109 234.147 271.381 234.136 271.641 234.212C271.901 234.289 272.138 234.449 272.321 234.674C272.505 234.898 272.626 235.176 272.671 235.473C272.716 235.77 272.681 236.072 272.572 236.341C272.463 236.61 272.285 236.834 272.059 236.985C271.833 237.136 271.57 237.206 271.303 237.188C271.036 237.169 270.778 237.063 270.56 236.881C270.269 236.638 270.071 236.278 270.011 235.88C269.951 235.482 270.034 235.079 270.241 234.76ZM265.107 230.479C265.262 230.24 265.477 230.061 265.726 229.963C265.976 229.866 266.248 229.855 266.508 229.931C266.768 230.007 267.005 230.168 267.188 230.392C267.371 230.617 267.493 230.895 267.538 231.192C267.583 231.489 267.548 231.791 267.439 232.06C267.33 232.329 267.151 232.553 266.925 232.704C266.7 232.854 266.437 232.925 266.17 232.906C265.903 232.888 265.645 232.781 265.427 232.6C265.282 232.479 265.158 232.328 265.064 232.156C264.969 231.984 264.905 231.794 264.875 231.596C264.845 231.398 264.85 231.197 264.89 231.004C264.93 230.812 265.003 230.631 265.107 230.472L265.107 230.479ZM259.974 226.197C260.128 225.959 260.344 225.779 260.593 225.682C260.842 225.585 261.114 225.573 261.375 225.65C261.635 225.726 261.871 225.886 262.055 226.111C262.238 226.335 262.36 226.614 262.405 226.91C262.449 227.207 262.415 227.509 262.306 227.778C262.197 228.047 262.018 228.272 261.792 228.422C261.566 228.573 261.303 228.643 261.037 228.625C260.77 228.606 260.511 228.5 260.294 228.318C260.149 228.198 260.025 228.047 259.93 227.875C259.836 227.703 259.771 227.512 259.742 227.314C259.712 227.117 259.717 226.916 259.757 226.723C259.797 226.53 259.87 226.349 259.973 226.191L259.974 226.197ZM254.841 221.916C254.995 221.677 255.211 221.498 255.46 221.401C255.709 221.303 255.981 221.292 256.241 221.368C256.501 221.445 256.738 221.605 256.922 221.829C257.105 222.054 257.227 222.332 257.271 222.629C257.316 222.926 257.282 223.228 257.173 223.497C257.064 223.766 256.885 223.99 256.659 224.141C256.433 224.292 256.17 224.362 255.903 224.344C255.637 224.325 255.378 224.218 255.16 224.037C255.015 223.916 254.891 223.765 254.796 223.593C254.701 223.421 254.637 223.23 254.607 223.032C254.578 222.834 254.583 222.633 254.623 222.44C254.663 222.247 254.736 222.066 254.84 221.908L254.841 221.916ZM249.708 217.634C249.862 217.396 250.077 217.217 250.327 217.119C250.576 217.022 250.848 217.01 251.108 217.087C251.368 217.163 251.605 217.324 251.788 217.548C251.972 217.772 252.093 218.051 252.138 218.347C252.183 218.644 252.149 218.946 252.04 219.215C251.931 219.485 251.752 219.709 251.526 219.859C251.3 220.01 251.037 220.081 250.77 220.062C250.503 220.044 250.245 219.937 250.027 219.755C249.882 219.635 249.758 219.484 249.663 219.312C249.568 219.139 249.504 218.949 249.474 218.751C249.444 218.553 249.45 218.352 249.49 218.159C249.529 217.966 249.603 217.785 249.707 217.626L249.708 217.634ZM238.228 219.323C235.637 217.402 233.18 215.605 230.786 213.852C214.001 201.569 203.82 194.122 200.181 182.256C201.856 183.44 212.883 191.146 218.384 192.189L241.929 214.046L238.228 219.323Z" fill="white" stroke="white" stroke-width="2" mask="url(#path-3-inside-2_3_42)"/>
</g>
<path d="M176.891 113.084L179.256 114.696L200.572 100.178L198.392 98.7042C196.942 97.7172 196.027 96.5303 195.667 95.156C195.266 93.7567 195.41 91.4704 196.089 88.2845L197.117 83.8368C197.95 79.364 197.899 75.7658 196.953 73.0297C195.976 70.2686 193.909 67.8199 190.752 65.671C184.603 61.4731 177.405 60.0113 169.179 61.2732C160.911 62.5101 151.976 66.3956 142.372 72.9423C138.711 75.441 135.225 78.2396 131.934 81.363C128.644 84.4864 125.292 88.1346 121.878 92.295L137.055 102.627C138.947 98.4419 141.21 94.7312 143.852 91.4829C146.464 88.2095 149.364 85.4984 152.551 83.3245C155.945 81.0132 159.225 79.6639 162.402 79.2516C165.549 78.8268 168.253 79.3765 170.505 80.9132C171.986 81.9252 172.932 83.287 173.354 85.0236C173.816 86.7228 173.755 88.9092 173.189 91.5828L172.212 96.0681C171.194 101.066 171.071 104.701 171.832 106.988C172.562 109.249 174.248 111.285 176.891 113.084Z" fill="white"/>
<path d="M186.413 119.569L203.616 131.275L224.942 116.758L207.739 105.051L186.413 119.569Z" fill="white"/>
<defs>
<clipPath id="clip0_3_42">
<rect width="92.9274" height="104.881" fill="white" transform="matrix(0.984137 0.177412 -0.184997 0.982739 71.7529 155.289)"/>
</clipPath>
<clipPath id="clip1_3_42">
<rect width="92.9639" height="104.838" fill="white" transform="matrix(-0.993128 0.117036 0.122138 0.992513 285.366 159.291)"/>
</clipPath>
</defs>
</svg>
